<svg width="724" height="258" viewBox="0 0 724 258" fill="none" xmlns="http://www.w3.org/2000/svg">
<path d="M129.574 42V216.052C129.574 216.948 128.472 217.374 127.849 216.73C85.8137 173.256 77.7469 141.48 90.5735 103C99.5634 76.0301 115.867 56.9525 127.764 41.3877C128.348 40.6242 129.574 41.039 129.574 42Z" stroke="black" stroke-width="8"/>
<path d="M129.496 42V216.052C129.496 216.948 130.597 217.374 131.22 216.73C173.256 173.256 181.322 141.48 168.496 103C159.506 76.0301 143.202 56.9525 131.305 41.3877C130.721 40.6242 129.496 41.039 129.496 42Z" stroke="black" stroke-width="8"/>
<line x1="129.666" y1="172.677" x2="172.677" y2="129.666" stroke="black" stroke-width="8"/>
<line x1="129.172" y1="132.172" x2="166.172" y2="95.1716" stroke="black" stroke-width="8"/>
<line x1="128.172" y1="95.1716" x2="151.172" y2="72.1716" stroke="black" stroke-width="8"/>
<line y1="-4" x2="60.8276" y2="-4" transform="matrix(-0.707107 -0.707107 -0.707107 0.707107 127.012 175.506)" stroke="black" stroke-width="8"/>
<line y1="-4" x2="52.3259" y2="-4" transform="matrix(-0.707107 -0.707107 -0.707107 0.707107 127.506 135)" stroke="black" stroke-width="8"/>
<line y1="-4" x2="32.5269" y2="-4" transform="matrix(-0.707107 -0.707107 -0.707107 0.707107 128.506 98)" stroke="black" stroke-width="8"/>
<path d="M244 175.5C234.809 202.619 206.649 248.446 130.152 253.785C129.236 253.849 128.708 252.747 129.359 252.098L149.5 232" stroke="black" stroke-width="8"/>
<path d="M176 13C203.119 22.1913 248.946 50.3513 254.285 126.848C254.349 127.764 253.247 128.292 252.598 127.641L232.5 107.5" stroke="black" stroke-width="8"/>
<path d="M14 82.453C23.1913 55.3339 51.3513 9.5071 127.848 4.16774C128.764 4.10374 129.292 5.20587 128.641 5.85501L108.5 25.953" stroke="black" stroke-width="8"/>
<path d="M82.453 243.5C55.3339 234.309 9.5071 206.149 4.16774 129.652C4.10374 128.736 5.20587 128.208 5.85501 128.859L25.953 149" stroke="black" stroke-width="8"/>
<path d="M298.6 163H340.264V155.416H307.528V129.784H334.216V122.2H307.528V100.12H339.208V92.536H298.6V163ZM373.782 164.248C380.022 164.248 385.974 161.848 390.678 157.624L386.838 151.768C383.574 154.744 379.35 156.952 374.55 156.952C364.95 156.952 358.422 148.984 358.422 136.984C358.422 124.984 365.334 116.824 374.838 116.824C378.966 116.824 382.134 118.744 385.206 121.432L389.718 115.672C385.974 112.408 381.27 109.528 374.454 109.528C361.11 109.528 349.302 119.608 349.302 136.984C349.302 154.264 359.958 164.248 373.782 164.248ZM419.994 164.248C432.762 164.248 444.186 154.264 444.186 136.984C444.186 119.608 432.762 109.528 419.994 109.528C407.226 109.528 395.802 119.608 395.802 136.984C395.802 154.264 407.226 164.248 419.994 164.248ZM419.994 156.952C410.97 156.952 404.922 148.984 404.922 136.984C404.922 124.984 410.97 116.824 419.994 116.824C429.018 116.824 435.162 124.984 435.162 136.984C435.162 148.984 429.018 156.952 419.994 156.952ZM454.197 139.48H478.773V132.76H454.197V139.48ZM491.895 163H500.631V129.496C504.087 120.568 509.463 117.496 513.783 117.496C515.895 117.496 517.143 117.688 518.871 118.36L520.503 110.68C518.871 109.816 517.239 109.528 514.935 109.528C509.079 109.528 503.799 113.752 500.151 120.376H499.863L499.095 110.872H491.895V163ZM548.338 164.248C561.106 164.248 572.53 154.264 572.53 136.984C572.53 119.608 561.106 109.528 548.338 109.528C535.57 109.528 524.146 119.608 524.146 136.984C524.146 154.264 535.57 164.248 548.338 164.248ZM548.338 156.952C539.314 156.952 533.266 148.984 533.266 136.984C533.266 124.984 539.314 116.824 548.338 116.824C557.362 116.824 563.506 124.984 563.506 136.984C563.506 148.984 557.362 156.952 548.338 156.952ZM601.469 164.248C608.669 164.248 613.853 160.504 618.749 154.84H619.037L619.709 163H627.005V110.872H618.269V147.832C613.277 154.072 609.533 156.664 604.157 156.664C597.245 156.664 594.365 152.536 594.365 142.84V110.872H585.629V143.896C585.629 157.144 590.525 164.248 601.469 164.248ZM661.029 164.248C664.197 164.248 667.653 163.288 670.629 162.328L668.901 155.8C667.173 156.472 664.773 157.144 662.949 157.144C656.901 157.144 654.885 153.496 654.885 147.064V117.976H668.997V110.872H654.885V96.184H647.589L646.533 110.872L638.373 111.352V117.976H646.149V146.872C646.149 157.24 649.893 164.248 661.029 164.248ZM700.419 164.248C707.523 164.248 713.091 161.848 717.699 158.872L714.531 153.112C710.691 155.704 706.563 157.24 701.475 157.24C691.587 157.24 684.771 150.136 684.195 139H719.331C719.523 137.752 719.715 135.928 719.715 134.008C719.715 119.128 712.227 109.528 698.979 109.528C686.883 109.528 675.459 120.088 675.459 136.984C675.459 154.168 686.595 164.248 700.419 164.248ZM684.099 132.664C685.155 122.488 691.683 116.536 699.075 116.536C707.235 116.536 712.035 122.2 712.035 132.664H684.099Z" fill="black"/>
<line x1="294.5" y1="56.5" x2="707.5" y2="56.5" stroke="black" stroke-width="9" stroke-linecap="round"/>
<line x1="292" y1="202" x2="706" y2="202" stroke="black" stroke-width="8" stroke-linecap="round"/>
</svg>
